<svg xmlns="http://www.w3.org/2000/svg" width="51.8" height="46.048" viewBox="0 0 51.8 46.048"><defs><style>.a{fill:#ff3e55;}</style></defs><path class="a" d="M34.536,10.963a2.152,2.152,0,0,0-.63-1.52L25.1.63A2.157,2.157,0,0,0,23.573,0h-.549V11.512H34.536ZM51.355,27.7l-8.607-8.67a1.443,1.443,0,0,0-2.464,1.016V25.9H34.527v5.756h5.756v5.864a1.443,1.443,0,0,0,2.464,1.016l8.607-8.679A1.531,1.531,0,0,0,51.355,27.7ZM17.268,30.219V27.341A1.443,1.443,0,0,1,18.707,25.9H34.536V14.39H22.3a2.165,2.165,0,0,1-2.159-2.159V0H2.159A2.153,2.153,0,0,0,0,2.159V43.89a2.153,2.153,0,0,0,2.159,2.159H32.378a2.153,2.153,0,0,0,2.159-2.159V31.658H18.707A1.443,1.443,0,0,1,17.268,30.219Z"/></svg>