<svg xmlns="http://www.w3.org/2000/svg" width="1200" height="1200" viewBox="0 0 1200 1200">
  <defs>
    <style>
      .cls-1 {
        fill: #ff3e55;
      }

      .cls-1, .cls-2 {
        fill-rule: evenodd;
      }

      .cls-2 {
        fill: #fdf8f4;
      }
    </style>
  </defs>
  <path class="cls-1" d="M971,752l-1-358s-55-48-158-40c0,0-101,7-156,25,0,0-203,54-262,44,0,0-59-10-82-18,0,0-32-1-37,35V792s26,60,216,37c0,0,85-11,229-55,0,0,124-23,160-6,0,0,63,26,81,5C961,773,973,770,971,752Z"/>
  <path class="cls-2" d="M318,450l-2,78s67,14,83-66Z"/>
  <path class="cls-2" d="M854,398l73,14,3,64S858,481,854,398Z"/>
  <path class="cls-2" d="M928,661l1,74-74-10S866,666,928,661Z"/>
  <path class="cls-2" d="M399,794l-80-21-2-57S390,708,399,794Z"/>
  <path class="cls-2" d="M612,485s-70,4-81,96c0,0-11,102,71,120,0,0,119,29,112-138C714,563,690,467,612,485Z"/>
</svg>
